<mxfile host="app.diagrams.net" modified="2023-12-04T08:44:40.998Z" agent="Mozilla/5.0 (Windows NT 10.0; Win64; x64) AppleWebKit/537.36 (KHTML, like Gecko) Chrome/119.0.0.0 Safari/537.36" etag="6ZqtUyfQP8g82MS9mJxp" version="22.1.5" type="github">
  <diagram name="Page-1" id="f-5v2sI5h4t3cFkbrv8b">
    <mxGraphModel dx="330" dy="170" grid="1" gridSize="10" guides="1" tooltips="1" connect="1" arrows="1" fold="1" page="1" pageScale="1" pageWidth="850" pageHeight="1100" math="0" shadow="0">
      <root>
        <mxCell id="0" />
        <mxCell id="1" parent="0" />
        <mxCell id="Wa3p7uX86l7QjgIijev7-98" value="" style="rounded=1;whiteSpace=wrap;html=1;strokeWidth=0.5;" parent="1" vertex="1">
          <mxGeometry x="235" y="120.13" width="65" height="70" as="geometry" />
        </mxCell>
        <mxCell id="Wa3p7uX86l7QjgIijev7-48" value="" style="verticalLabelPosition=bottom;verticalAlign=top;html=1;shape=mxgraph.infographic.parallelogram;dx=16.69;fillColor=#bac8d3;strokeColor=#23445d;flipH=0;flipV=1;direction=south;" parent="1" vertex="1">
          <mxGeometry x="160" y="40" width="40" height="120" as="geometry" />
        </mxCell>
        <mxCell id="Wa3p7uX86l7QjgIijev7-49" value="" style="verticalLabelPosition=bottom;verticalAlign=top;html=1;shape=mxgraph.infographic.parallelogram;dx=16.69;fillColor=#d5e8d4;strokeColor=#82b366;flipH=0;flipV=1;direction=south;" parent="1" vertex="1">
          <mxGeometry x="170" y="40" width="40" height="120" as="geometry" />
        </mxCell>
        <mxCell id="Wa3p7uX86l7QjgIijev7-71" value="&lt;p style=&quot;font-size: 6px; line-height: 60%;&quot;&gt;&lt;span data-darkreader-inline-color=&quot;&quot; data-darkreader-inline-bgcolor=&quot;&quot; style=&quot;font-family: DQD_PXNZRMz7GEKOn7Fx; background-color: initial; color: rgb(0, 0, 0); font-weight: normal; --darkreader-inline-bgcolor: initial; --darkreader-inline-color: #bab8b6; font-size: 6px;&quot;&gt;&lt;font style=&quot;font-size: 6px;&quot;&gt;2D Convolution&lt;/font&gt;&lt;/span&gt;&lt;/p&gt;&lt;p style=&quot;font-size: 6px; line-height: 60%;&quot;&gt;&lt;font face=&quot;DQD_PXNZRMz7GEKOn7Fx&quot; style=&quot;font-size: 6px;&quot;&gt;ReLU&lt;/font&gt;&lt;/p&gt;&lt;p style=&quot;font-size: 6px; line-height: 60%;&quot;&gt;&lt;span data-darkreader-inline-color=&quot;&quot; data-darkreader-inline-bgcolor=&quot;&quot; style=&quot;font-family: DQD_PXNZRMz7GEKOn7Fx; background-color: initial; color: rgb(0, 0, 0); font-weight: normal; --darkreader-inline-bgcolor: initial; --darkreader-inline-color: #bab8b6; font-size: 6px;&quot;&gt;&lt;font style=&quot;font-size: 6px;&quot;&gt;2D Max Pooling&amp;nbsp;&lt;/font&gt;&lt;/span&gt;&lt;/p&gt;&lt;p style=&quot;font-size: 6px; line-height: 60%;&quot;&gt;&lt;span data-darkreader-inline-color=&quot;&quot; data-darkreader-inline-bgcolor=&quot;&quot; style=&quot;font-family: DQD_PXNZRMz7GEKOn7Fx; background-color: initial; color: rgb(0, 0, 0); font-weight: normal; --darkreader-inline-bgcolor: initial; --darkreader-inline-color: #bab8b6; font-size: 6px;&quot;&gt;&lt;font style=&quot;font-size: 6px;&quot;&gt;Dropout&lt;/font&gt;&lt;/span&gt;&lt;/p&gt;&lt;p style=&quot;font-size: 6px; line-height: 60%;&quot;&gt;&lt;span data-darkreader-inline-color=&quot;&quot; data-darkreader-inline-bgcolor=&quot;&quot; style=&quot;background-color: initial; color: rgb(0, 0, 0); font-family: DQD_PXNZRMz7GEKOn7Fx; --darkreader-inline-bgcolor: initial; --darkreader-inline-color: #bab8b6;&quot;&gt;Input Layer&lt;/span&gt;&lt;/p&gt;&lt;p style=&quot;font-size: 6px; line-height: 60%;&quot;&gt;&lt;span data-darkreader-inline-color=&quot;&quot; data-darkreader-inline-bgcolor=&quot;&quot; style=&quot;background-color: initial; color: rgb(0, 0, 0); font-family: DQD_PXNZRMz7GEKOn7Fx; --darkreader-inline-bgcolor: initial; --darkreader-inline-color: #bab8b6;&quot;&gt;Flatten&lt;/span&gt;&lt;/p&gt;&lt;p style=&quot;font-size: 6px; line-height: 60%;&quot;&gt;&lt;span data-darkreader-inline-color=&quot;&quot; data-darkreader-inline-bgcolor=&quot;&quot; style=&quot;font-family: DQD_PXNZRMz7GEKOn7Fx; background-color: initial; color: rgb(0, 0, 0); --darkreader-inline-bgcolor: initial; --darkreader-inline-color: #bab8b6;&quot;&gt;Output Layer&lt;/span&gt;&lt;/p&gt;" style="text;html=1;strokeColor=none;fillColor=none;spacing=0;spacingTop=0;whiteSpace=wrap;overflow=hidden;rounded=0;verticalAlign=middle;fontSize=6;" parent="1" vertex="1">
          <mxGeometry x="254" y="111.88" width="51" height="86.25" as="geometry" />
        </mxCell>
        <mxCell id="Wa3p7uX86l7QjgIijev7-73" value="&lt;p style=&quot;line-height: 40%; font-size: 5px;&quot;&gt;&lt;span data-darkreader-inline-color=&quot;&quot; data-darkreader-inline-bgcolor=&quot;&quot; style=&quot;background-color: initial; color: rgb(0, 0, 0); font-family: &amp;quot;Times New Roman&amp;quot;; --darkreader-inline-bgcolor: initial; --darkreader-inline-color: #bab8b6; font-size: 5px;&quot;&gt;Multi-modal data&lt;/span&gt;&lt;/p&gt;&lt;p style=&quot;line-height: 40%; font-size: 6px;&quot;&gt;&lt;span data-darkreader-inline-color=&quot;&quot; data-darkreader-inline-bgcolor=&quot;&quot; style=&quot;background-color: initial; color: rgb(0, 0, 0); font-family: &amp;quot;Times New Roman&amp;quot;; --darkreader-inline-bgcolor: initial; --darkreader-inline-color: #bab8b6;&quot;&gt;1 x 20 x 16&lt;/span&gt;&lt;/p&gt;" style="text;html=1;strokeColor=none;fillColor=none;align=center;verticalAlign=middle;whiteSpace=wrap;rounded=0;spacing=0;fontSize=5;" parent="1" vertex="1">
          <mxGeometry x="160" y="10" width="60" height="20" as="geometry" />
        </mxCell>
        <mxCell id="Wa3p7uX86l7QjgIijev7-92" value="" style="verticalLabelPosition=bottom;verticalAlign=top;html=1;shape=mxgraph.infographic.parallelogram;dx=2.58;fillColor=#d5e8d4;strokeColor=#82b366;flipH=0;flipV=1;direction=south;" parent="1" vertex="1">
          <mxGeometry x="240" y="122.13" width="10" height="10" as="geometry" />
        </mxCell>
        <mxCell id="Wa3p7uX86l7QjgIijev7-94" value="" style="verticalLabelPosition=bottom;verticalAlign=top;html=1;shape=mxgraph.infographic.parallelogram;dx=2.58;fillColor=#ffe6cc;strokeColor=#d79b00;flipH=0;flipV=1;direction=south;" parent="1" vertex="1">
          <mxGeometry x="240" y="141.63" width="10" height="10" as="geometry" />
        </mxCell>
        <mxCell id="Wa3p7uX86l7QjgIijev7-97" value="" style="endArrow=none;html=1;rounded=0;fillColor=#e1d5e7;strokeColor=#9673a6;strokeWidth=2;shadow=0;" parent="1" edge="1">
          <mxGeometry width="50" height="50" relative="1" as="geometry">
            <mxPoint x="244.90999999999997" y="185.63" as="sourcePoint" />
            <mxPoint x="245" y="180.32" as="targetPoint" />
          </mxGeometry>
        </mxCell>
        <mxCell id="1PAW9AeHxecQ88r_GMkN-1" value="" style="endArrow=classic;html=1;rounded=0;exitX=0.33;exitY=1.009;exitDx=0;exitDy=0;entryX=0;entryY=0.5;entryDx=103.31000000000002;entryDy=0;entryPerimeter=0;exitPerimeter=0;" edge="1" parent="1" source="Wa3p7uX86l7QjgIijev7-73" target="Wa3p7uX86l7QjgIijev7-48">
          <mxGeometry width="50" height="50" relative="1" as="geometry">
            <mxPoint x="180" y="80" as="sourcePoint" />
            <mxPoint x="230" y="30" as="targetPoint" />
          </mxGeometry>
        </mxCell>
        <mxCell id="1PAW9AeHxecQ88r_GMkN-2" value="" style="verticalLabelPosition=bottom;verticalAlign=top;html=1;shape=mxgraph.infographic.parallelogram;dx=16.69;flipH=0;flipV=1;direction=south;fillColor=#f8cecc;strokeColor=#b85450;" vertex="1" parent="1">
          <mxGeometry x="180" y="44" width="40" height="100" as="geometry" />
        </mxCell>
        <mxCell id="Wa3p7uX86l7QjgIijev7-52" value="" style="verticalLabelPosition=bottom;verticalAlign=top;html=1;shape=mxgraph.infographic.parallelogram;dx=12.47;fillColor=#d5e8d4;strokeColor=#82b366;flipH=0;flipV=1;direction=south;" parent="1" vertex="1">
          <mxGeometry x="195" y="51.13" width="30" height="68.87" as="geometry" />
        </mxCell>
        <mxCell id="1PAW9AeHxecQ88r_GMkN-3" value="" style="verticalLabelPosition=bottom;verticalAlign=top;html=1;shape=mxgraph.infographic.parallelogram;dx=12.47;fillColor=#f8cecc;strokeColor=#b85450;flipH=0;flipV=1;direction=south;" vertex="1" parent="1">
          <mxGeometry x="205" y="51.12" width="30" height="68.88" as="geometry" />
        </mxCell>
        <mxCell id="1PAW9AeHxecQ88r_GMkN-4" value="" style="verticalLabelPosition=bottom;verticalAlign=top;html=1;shape=mxgraph.infographic.parallelogram;dx=12.47;fillColor=#ffe6cc;strokeColor=#d79b00;flipH=0;flipV=1;direction=south;" vertex="1" parent="1">
          <mxGeometry x="215" y="51" width="30" height="69" as="geometry" />
        </mxCell>
        <mxCell id="Wa3p7uX86l7QjgIijev7-63" value="" style="verticalLabelPosition=bottom;verticalAlign=top;html=1;shape=mxgraph.infographic.parallelogram;dx=8.62;fillColor=#b1ddf0;strokeColor=#10739e;flipH=0;flipV=1;direction=south;" parent="1" vertex="1">
          <mxGeometry x="230" y="58.13" width="20" height="41.87" as="geometry" />
        </mxCell>
        <mxCell id="1PAW9AeHxecQ88r_GMkN-7" value="" style="endArrow=none;html=1;rounded=0;fillColor=#fa6800;strokeColor=#C73500;strokeWidth=2;shadow=0;exitX=0.498;exitY=0.764;exitDx=0;exitDy=0;exitPerimeter=0;" edge="1" parent="1" source="1PAW9AeHxecQ88r_GMkN-24">
          <mxGeometry width="50" height="50" relative="1" as="geometry">
            <mxPoint x="276" y="79.37" as="sourcePoint" />
            <mxPoint x="241" y="79.37" as="targetPoint" />
          </mxGeometry>
        </mxCell>
        <mxCell id="1PAW9AeHxecQ88r_GMkN-12" value="&lt;p style=&quot;line-height: 40%; font-size: 5px;&quot;&gt;&lt;span data-darkreader-inline-color=&quot;&quot; data-darkreader-inline-bgcolor=&quot;&quot; style=&quot;background-color: initial; color: rgb(0, 0, 0); font-family: &amp;quot;Times New Roman&amp;quot;; --darkreader-inline-bgcolor: initial; --darkreader-inline-color: #bab8b6;&quot;&gt;32 x 18 x 14&lt;/span&gt;&lt;br&gt;&lt;/p&gt;" style="text;html=1;strokeColor=none;fillColor=none;align=center;verticalAlign=middle;whiteSpace=wrap;rounded=0;spacing=0;fontSize=5;" vertex="1" parent="1">
          <mxGeometry x="180" y="150" width="30" height="10" as="geometry" />
        </mxCell>
        <mxCell id="1PAW9AeHxecQ88r_GMkN-13" value="&lt;p style=&quot;line-height: 40%; font-size: 5px;&quot;&gt;&lt;span data-darkreader-inline-color=&quot;&quot; data-darkreader-inline-bgcolor=&quot;&quot; style=&quot;background-color: initial; color: rgb(0, 0, 0); font-family: &amp;quot;Times New Roman&amp;quot;; --darkreader-inline-bgcolor: initial; --darkreader-inline-color: #bab8b6;&quot;&gt;1 x 16 x 12&lt;/span&gt;&lt;br&gt;&lt;/p&gt;" style="text;html=1;strokeColor=none;fillColor=none;align=center;verticalAlign=middle;whiteSpace=wrap;rounded=0;spacing=0;fontSize=5;" vertex="1" parent="1">
          <mxGeometry x="200" y="129.5" width="30" height="10" as="geometry" />
        </mxCell>
        <mxCell id="1PAW9AeHxecQ88r_GMkN-16" value="&lt;p style=&quot;line-height: 40%; font-size: 5px;&quot;&gt;&lt;span data-darkreader-inline-color=&quot;&quot; data-darkreader-inline-bgcolor=&quot;&quot; style=&quot;background-color: initial; color: rgb(0, 0, 0); font-family: &amp;quot;Times New Roman&amp;quot;; --darkreader-inline-bgcolor: initial; --darkreader-inline-color: #bab8b6;&quot;&gt;1 x 8 x 6&lt;/span&gt;&lt;br&gt;&lt;/p&gt;" style="text;html=1;strokeColor=none;fillColor=none;align=center;verticalAlign=middle;whiteSpace=wrap;rounded=0;spacing=0;fontSize=5;" vertex="1" parent="1">
          <mxGeometry x="220" y="110" width="30" height="10" as="geometry" />
        </mxCell>
        <mxCell id="1PAW9AeHxecQ88r_GMkN-17" value="&lt;p style=&quot;line-height: 40%; font-size: 5px;&quot;&gt;&lt;span data-darkreader-inline-color=&quot;&quot; data-darkreader-inline-bgcolor=&quot;&quot; style=&quot;background-color: initial; color: rgb(0, 0, 0); font-family: &amp;quot;Times New Roman&amp;quot;; --darkreader-inline-bgcolor: initial; --darkreader-inline-color: #bab8b6;&quot;&gt;1 x 48&lt;/span&gt;&lt;br&gt;&lt;/p&gt;" style="text;html=1;strokeColor=none;fillColor=none;align=center;verticalAlign=middle;whiteSpace=wrap;rounded=0;spacing=0;fontSize=5;" vertex="1" parent="1">
          <mxGeometry x="240" y="89" width="30" height="10" as="geometry" />
        </mxCell>
        <mxCell id="1PAW9AeHxecQ88r_GMkN-18" value="&lt;p style=&quot;line-height: 40%; font-size: 5px;&quot;&gt;&lt;span data-darkreader-inline-color=&quot;&quot; data-darkreader-inline-bgcolor=&quot;&quot; style=&quot;background-color: initial; color: rgb(0, 0, 0); font-family: &amp;quot;Times New Roman&amp;quot;; --darkreader-inline-bgcolor: initial; --darkreader-inline-color: #bab8b6;&quot;&gt;1 x 4&lt;/span&gt;&lt;br&gt;&lt;/p&gt;" style="text;html=1;strokeColor=none;fillColor=none;align=center;verticalAlign=middle;whiteSpace=wrap;rounded=0;spacing=0;fontSize=5;" vertex="1" parent="1">
          <mxGeometry x="280" y="89" width="30" height="10" as="geometry" />
        </mxCell>
        <mxCell id="1PAW9AeHxecQ88r_GMkN-20" value="" style="verticalLabelPosition=bottom;verticalAlign=top;html=1;shape=mxgraph.infographic.parallelogram;dx=2.58;fillColor=#f8cecc;strokeColor=#b85450;flipH=0;flipV=1;direction=south;" vertex="1" parent="1">
          <mxGeometry x="240" y="131.63" width="10" height="10" as="geometry" />
        </mxCell>
        <mxCell id="1PAW9AeHxecQ88r_GMkN-21" value="" style="verticalLabelPosition=bottom;verticalAlign=top;html=1;shape=mxgraph.infographic.parallelogram;dx=2.58;flipH=0;flipV=1;direction=south;fillColor=#b1ddf0;strokeColor=#10739e;" vertex="1" parent="1">
          <mxGeometry x="240" y="150.13" width="10" height="10" as="geometry" />
        </mxCell>
        <mxCell id="1PAW9AeHxecQ88r_GMkN-22" value="" style="endArrow=none;html=1;rounded=0;fillColor=#fa6800;strokeColor=#C73500;strokeWidth=2;shadow=0;" edge="1" parent="1">
          <mxGeometry width="50" height="50" relative="1" as="geometry">
            <mxPoint x="244.99999999999997" y="176.44" as="sourcePoint" />
            <mxPoint x="245.09" y="171.13" as="targetPoint" />
          </mxGeometry>
        </mxCell>
        <mxCell id="1PAW9AeHxecQ88r_GMkN-24" value="" style="verticalLabelPosition=bottom;verticalAlign=top;html=1;shape=mxgraph.infographic.parallelogram;dx=4.29;fillColor=#f8cecc;strokeColor=#b85450;flipH=0;flipV=1;direction=south;" vertex="1" parent="1">
          <mxGeometry x="280" y="66.6" width="10" height="24.93" as="geometry" />
        </mxCell>
        <mxCell id="1PAW9AeHxecQ88r_GMkN-10" value="" style="endArrow=none;html=1;rounded=0;fillColor=#e1d5e7;strokeColor=#9673a6;strokeWidth=2;shadow=0;endSize=2;startSize=2;" edge="1" parent="1">
          <mxGeometry width="50" height="50" relative="1" as="geometry">
            <mxPoint x="300" y="79" as="sourcePoint" />
            <mxPoint x="285" y="78.99" as="targetPoint" />
          </mxGeometry>
        </mxCell>
        <mxCell id="1PAW9AeHxecQ88r_GMkN-25" value="" style="verticalLabelPosition=bottom;verticalAlign=top;html=1;shape=mxgraph.infographic.parallelogram;dx=2.58;flipH=0;flipV=1;direction=south;fillColor=#bac8d3;strokeColor=#23445d;" vertex="1" parent="1">
          <mxGeometry x="240" y="159.13" width="10" height="10" as="geometry" />
        </mxCell>
      </root>
    </mxGraphModel>
  </diagram>
</mxfile>
